<svg id="Capa_1" enable-background="new 0 0 512 512" height="512" viewBox="0 0 512 512" width="512" xmlns="http://www.w3.org/2000/svg" xmlns:xlink="http://www.w3.org/1999/xlink"><linearGradient id="SVGID_1_" gradientUnits="userSpaceOnUse" x1="256" x2="256" y1="512" y2="0"><stop offset="0" stop-color="#ae3ee2dc"/><stop offset="1" stop-color="#40005e"/></linearGradient><linearGradient id="SVGID_2_" gradientUnits="userSpaceOnUse" x1="256" x2="256" y1="407" y2="105"><stop offset="0" stop-color="#ff81ff"/><stop offset="1" stop-color="#a93aff"/></linearGradient><g><g><circle cx="256" cy="256" fill="url(#SVGID_1_)" r="256"/></g><g><g><path d="m158.269 105c-9.796 0-17.769 7.972-17.769 17.765v44.412c0 4.906 3.978 8.882 8.885 8.882h26.654v-53.294c0-9.793-7.974-17.765-17.77-17.765zm204.346 266.471h-91.894c-3.764 0-7.117 2.37-8.374 5.917-6.111 17.233-22.575 29.612-41.886 29.612h133.269c9.814 0 17.769-7.954 17.769-17.765v-8.882c.001-4.906-3.977-8.882-8.884-8.882zm-115.5-8.883c0-4.906 3.978-8.882 8.885-8.882h79.961v-222.059c0-14.717-11.933-26.647-26.654-26.647h-120.442c3.061 5.247 4.942 11.264 4.942 17.765v239.823c0 14.694 11.956 26.647 26.654 26.647s26.654-11.953 26.654-26.647zm8.885-211.54v-10.519c0-4.909 3.974-8.882 8.885-8.882s8.885 3.973 8.885 8.882v10.497c3.699 1.309 7.12 3.343 9.969 6.201 3.462 3.47 3.462 9.099-.017 12.56s-9.102 3.461-12.563-.017c-5.093-5.1-15.149-.98-15.158 6.289 0 4.901 3.982 8.882 8.885 8.882 14.698 0 26.654 11.953 26.654 26.647 0 11.565-7.45 21.332-17.769 25.011v10.519c0 4.91-3.974 8.882-8.885 8.882s-8.885-3.973-8.885-8.882v-10.497c-3.699-1.309-7.12-3.343-9.969-6.201-3.462-3.47-3.462-9.099.018-12.56 3.47-3.461 9.093-3.461 12.563.017 5.119 5.144 15.166 1.006 15.158-6.289 0-4.901-3.983-8.882-8.885-8.882-14.698 0-26.654-11.953-26.654-26.647-.001-11.565 7.449-21.332 17.768-25.011zm-26.654 122.717h71.077c4.911 0 8.885 3.973 8.885 8.882 0 4.91-3.974 8.882-8.885 8.882h-71.077c-4.911 0-8.885-3.973-8.885-8.882s3.974-8.882 8.885-8.882zm0 35.529h71.077c4.911 0 8.885 3.973 8.885 8.882s-3.974 8.882-8.885 8.882h-71.077c-4.911 0-8.885-3.973-8.885-8.882s3.974-8.882 8.885-8.882z" fill="url(#SVGID_2_)"/></g></g></g></svg>