<svg id="Capa_1" enable-background="new 0 0 512 512" height="512" viewBox="0 0 512 512" width="512" xmlns="http://www.w3.org/2000/svg" xmlns:xlink="http://www.w3.org/1999/xlink"><linearGradient id="SVGID_1_" gradientUnits="userSpaceOnUse" x1="256" x2="256" y1="512" y2="0"><stop offset="0" stop-color="rgba(24, 24, 87, 0.753)"/><stop offset="1" stop-color="rgba(24, 24, 87, 0.753)"/></linearGradient><linearGradient id="SVGID_2_" gradientUnits="userSpaceOnUse" x1="256" x2="256" y1="407" y2="105"><stop offset="0" stop-color="#ff81ff"/><stop offset="1" stop-color="#a93aff"/></linearGradient><g><circle cx="256" cy="256" fill="url(#SVGID_1_)" r="256"/><path d="m301.775 187.264v20.955c-1.17-.721-2.257-1.456-3.217-2.209-2.314-1.815-3.313-5.626-2.543-9.708.593-3.153 2.407-6.824 5.76-9.038zm17.695 47.866v31.124c5.718-2.976 9.111-8.61 10.008-13.949.498-2.962 1.199-12.799-10.008-17.175zm63.346-121.266v284.289c0 4.886-3.961 8.848-8.848 8.848h-235.937c-4.886 0-8.848-3.961-8.848-8.848v-284.289c0-7.293 8.328-11.454 14.16-7.075l18.257 13.708 18.267-13.709c3.146-2.361 7.473-2.362 10.62-.001l18.28 13.713 18.28-13.713c3.146-2.36 7.472-2.36 10.618 0l18.28 13.712 18.274-13.711c3.146-2.361 7.473-2.361 10.62 0l18.277 13.712 18.283-13.713c3.144-2.358 7.466-2.36 10.612-.004l18.327 13.724 18.327-13.724c5.834-4.37 14.151-.207 14.151 7.081zm-182.851 248.898c0-4.886-3.961-8.848-8.848-8.848h-17.695c-4.886 0-8.848 3.961-8.848 8.848s3.961 8.848 8.848 8.848h17.695c4.887-.001 8.848-3.962 8.848-8.848zm0-35.391c0-4.886-3.961-8.848-8.848-8.848h-17.695c-4.886 0-8.848 3.961-8.848 8.848s3.961 8.848 8.848 8.848h17.695c4.887 0 8.848-3.962 8.848-8.848zm0-35.391c0-4.886-3.961-8.848-8.848-8.848h-17.695c-4.886 0-8.848 3.961-8.848 8.848s3.961 8.848 8.848 8.848h17.695c4.887 0 8.848-3.961 8.848-8.848zm0-35.39c0-4.886-3.961-8.848-8.848-8.848h-17.695c-4.886 0-8.848 3.961-8.848 8.848 0 4.886 3.961 8.848 8.848 8.848h17.695c4.887 0 8.848-3.962 8.848-8.848zm0-35.391c0-4.886-3.961-8.848-8.848-8.848h-17.695c-4.886 0-8.848 3.961-8.848 8.848s3.961 8.848 8.848 8.848h17.695c4.887 0 8.848-3.961 8.848-8.848zm0-35.39c0-4.886-3.961-8.848-8.848-8.848h-17.695c-4.886 0-8.848 3.961-8.848 8.848s3.961 8.848 8.848 8.848h17.695c4.887-.001 8.848-3.962 8.848-8.848zm17.695 0c0 4.886 3.961 8.848 8.848 8.848h17.695c4.886 0 8.848-3.961 8.848-8.848s-3.961-8.848-8.848-8.848h-17.695c-4.887 0-8.848 3.961-8.848 8.848zm0 35.39c0 4.886 3.961 8.848 8.848 8.848h17.695c4.886 0 8.848-3.961 8.848-8.848s-3.961-8.848-8.848-8.848h-17.695c-4.887.001-8.848 3.962-8.848 8.848zm0 35.391c0 4.886 3.961 8.848 8.848 8.848h17.695c4.886 0 8.848-3.961 8.848-8.848 0-4.886-3.961-8.848-8.848-8.848h-17.695c-4.887 0-8.848 3.961-8.848 8.848zm0 35.39c0 4.886 3.961 8.848 8.848 8.848h17.695c4.886 0 8.848-3.961 8.848-8.848s-3.961-8.848-8.848-8.848h-17.695c-4.887.001-8.848 3.962-8.848 8.848zm117.969 70.782c0-4.886-3.961-8.848-8.848-8.848h-100.273c-4.886 0-8.848 3.961-8.848 8.848s3.961 8.848 8.848 8.848h100.273c4.887-.001 8.848-3.962 8.848-8.848zm0-35.391c0-4.886-3.961-8.848-8.848-8.848h-100.273c-4.886 0-8.848 3.961-8.848 8.848s3.961 8.848 8.848 8.848h100.273c4.887 0 8.848-3.962 8.848-8.848zm7.856-93.761c-3.901-7.122-10.413-12.459-18.832-15.435-1.705-.603-3.444-1.23-5.183-1.878v-30.84c3.321 1.096 5.03 2.764 5.246 2.985 3.218 3.638 8.773 4.004 12.441.807 3.683-3.211 4.066-8.8.856-12.483-3.078-3.53-9.475-7.965-18.542-9.445v-5.105c0-4.886-3.961-8.848-8.848-8.848-4.886 0-8.848 3.961-8.848 8.848v6.095c-.67.173-1.345.358-2.029.564-10.836 3.264-18.929 12.518-21.121 24.15-2.009 10.662 1.444 20.973 9.012 26.908 3.655 2.867 8.123 5.494 14.138 8.234v39.882c-4.48-.564-7.774-1.99-12.986-5.4-4.089-2.675-9.573-1.529-12.248 2.56s-1.529 9.573 2.56 12.248c8.865 5.8 15.08 7.777 22.673 8.385v6.139c0 4.886 3.961 8.848 8.848 8.848 4.886 0 8.848-3.961 8.848-8.848v-6.959c5.944-1.433 11.348-4.301 15.92-8.501 6.072-5.578 10.169-13.137 11.539-21.282 1.272-7.57.049-15.252-3.444-21.629z" fill="url(#SVGID_2_)"/></g></svg>